<svg xmlns="http://www.w3.org/2000/svg" width="41" height="41" fill="none"><path fill="#fffdf7" d="M41 41H21V28.9121c.5822-.2061 1-.7593 1-1.4121 0-.8284-.6716-1.5-1.5-1.5s-1.5.6716-1.5 1.5c0 .6528.4178 1.206 1 1.4121V41H0V21h12v10.0869c-.5823.2061-1 .7602-1 1.4131 0 .8284.6716 1.5 1.5 1.5s1.5-.6716 1.5-1.5c0-.6529-.4177-1.207-1-1.4131V21h15v10.0869c-.5823.2061-1 .7602-1 1.4131 0 .8284.6716 1.5 1.5 1.5s1.5-.6716 1.5-1.5c0-.6529-.4177-1.207-1-1.4131V21h12zM20 6H7.91309C7.70703 5.41766 7.15293 5 6.5 5 5.67157 5 5 5.67157 5 6.5S5.67157 8 6.5 8c.65293 0 1.20703-.41766 1.41309-1H20v13H0v-6h12.0869c.2061.5823.7602 1 1.4131 1 .8284 0 1.5-.6716 1.5-1.5s-.6716-1.5-1.5-1.5c-.6529 0-1.207.4177-1.4131 1H0V0h20zm21 0H28.9131c-.2061-.58234-.7602-1-1.4131-1-.8284 0-1.5.67157-1.5 1.5S26.6716 8 27.5 8c.6529 0 1.207-.41766 1.4131-1H41v13H21v-6h12.0869c.2061.5823.7602 1 1.4131 1 .8284 0 1.5-.6716 1.5-1.5s-.6716-1.5-1.5-1.5c-.6529 0-1.207.4177-1.4131 1H21V0h20z"/></svg>
