<svg fill="none" viewBox="0 0 54 54" xmlns="http://www.w3.org/2000/svg"><circle cx="27" cy="27" fill="#000" r="27"/><g fill="#fffdf7"><path clip-rule="evenodd" d="m25.03 38.83a7 7 0 0 1 -5.47-6.83v-9a6 6 0 0 0 -11.56-2.27 2.5 2.5 0 0 1 3.56 2.27v10a8 8 0 0 0 13.47 5.83zm8.53-6.83a7 7 0 0 1 -8.12 6.91 10 10 0 0 0 16.12-7.91v-8a3.48 3.48 0 0 1 3.5-3.5c.67 0 1.3.19 1.83.52a7 7 0 0 0 -13.33 2.98z" fill-rule="evenodd"/><path d="m24.56 32a2.5 2.5 0 0 1 -3.56 2.27 6.02 6.02 0 0 0 5.56 3.73 6 6 0 0 0 6-6v-9a8 8 0 0 1 5.71-7.67 9 9 0 0 0 -13.71 7.67z"/></g></svg>