<svg fill="none" height="36" viewBox="0 0 120 36" width="120" xmlns="http://www.w3.org/2000/svg" xmlns:xlink="http://www.w3.org/1999/xlink"><clipPath id="a"><path d="m0 .631592h120v34.7368h-120z"/></clipPath><g clip-path="url(#a)" fill="#5d3ea8"><path d="m19.4083.792384-16.19599 5.669076c-1.80033.63221-1.80033 3.14716 0 3.77934l.77662.271 6.53767 2.2926c1.9133.6808 3.1912 2.4663 3.1912 4.4741v8.1494l6.4459-2.2719c1.9203-.6808 3.2052-2.4663 3.2052-4.4741v-15.10362c0-2.02168-2.0262-3.438949-3.9606-2.785896z" fill-opacity=".6"/><path d="m3.21223 29.1307c-.9037.3196-1.35554 1.1046-1.35554 1.8898 0 .7365.38831 1.4659 1.17903 1.8201.05648.0279.11297.0487.17651.0694l6.70006 2.3414c1.89211.535 3.81251-.8544 3.81251-2.8277v-6.9958z" fill-opacity=".6"/><path d="m10.5337 12.7974-7.32133-2.5566c-1.80034-.63222-1.80034-3.14716 0-3.77937-1.92743.67389-3.21237 2.47326-3.21237 4.48107v15.1454 2.3341c0 1.7995 1.03078 3.4252 2.63344 4.2311.02118.0068.0353.0208.05648.0278.0353.0137.08472.0347.13414.0624.0353.0208.07766.0348.11296.0488.04942.0207.08472.0347.09884.0415-.78368-.3542-1.17905-1.0836-1.17905-1.8201 0-.7852.45186-1.5772 1.35556-1.8898l10.50543-3.7028v-8.1424c.0071-2.0078-1.2708-3.8002-3.1841-4.4811z"/><path d="m39.5254 11.4198c1.5061 0 2.7562.5057 3.75 1.517 1.0092.9958 1.514 2.2405 1.514 3.7342 0 1.4781-.5048 2.7228-1.514 3.7341-.9938 1.0114-2.2439 1.517-3.75 1.517h-3.7502v5.8347h-2.1661v-16.337zm0 8.4719c.9005 0 1.646-.3034 2.2361-.9102.59-.6224.8851-1.3925.8851-2.3105 0-.9336-.2951-1.7037-.8851-2.3105-.5901-.6068-1.3356-.9102-2.2361-.9102h-3.7502v6.4414z"/><path d="m56.3599 16.0875h2.0265v11.6692h-2.0265v-2.007c-1.0094 1.5401-2.4767 2.3104-4.4023 2.3104-1.6304 0-3.0201-.5912-4.1691-1.7738-1.1493-1.198-1.7238-2.6526-1.7238-4.3642 0-1.7115.5745-3.1585 1.7238-4.341 1.149-1.198 2.5387-1.797 4.1691-1.797 1.9256 0 3.3929.7701 4.4023 2.3105zm-4.1461 10.0122c1.1801 0 2.1663-.3967 2.9583-1.1903.7919-.809 1.1878-1.8048 1.1878-2.9873s-.3959-2.1705-1.1878-2.964c-.792-.8091-1.7782-1.2136-2.9583-1.2136-1.1646 0-2.1429.4045-2.9348 1.2136-.792.7935-1.1878 1.7815-1.1878 2.964s.3958 2.1783 1.1878 2.9873c.7919.7936 1.7702 1.1903 2.9348 1.1903z"/><path d="m70.0513 16.0875h2.1661l-4.7515 12.3927c-.4969 1.3225-1.1957 2.3262-2.0964 3.0108-.8851.7002-1.9099 1.0112-3.0747.9334v-1.8905c1.4287.109 2.4769-.6845 3.1446-2.3803l.2096-.4435-5.0777-11.6226h2.1661l3.9598 9.1486z"/><path d="m79.4862 18.0479h-3.0977v6.3247c0 .5756.1085.988.326 1.237.233.2334.5824.3577 1.0482.3733.4657 0 1.0403-.0156 1.7235-.0467v1.8205c-1.7702.2333-3.0668.0934-3.8896-.4202-.8231-.5289-1.2345-1.5169-1.2345-2.9639v-10.9457l2.0264-.6068v3.2674h3.0977z"/><path d="m83.2306 13.9638c-.3882 0-.7144-.1323-.9783-.3968-.2641-.2645-.3961-.5835-.3961-.9569s.132-.6924.3961-.9569c.2639-.28.5901-.42.9783-.42.3726 0 .6909.14.9548.42.2641.2645.3961.5835.3961.9569s-.132.6924-.3961.9569c-.2639.2645-.5822.3968-.9548.3968zm-1.025 13.793v-11.6692h2.0265v11.6692z"/><path d="m89.0461 22.8556c.2019 1.0424.6755 1.8515 1.4208 2.4272.7608.5756 1.6926.8636 2.795.8636 1.5374 0 2.6553-.5679 3.3541-1.7039l1.7238.9803c-1.1337 1.7583-2.8417 2.6373-5.1244 2.6373-1.8478 0-3.3541-.5756-4.5187-1.7271-1.149-1.1669-1.7236-2.6371-1.7236-4.4109 0-1.7582.5667-3.2207 1.7003-4.3876 1.1335-1.167 2.601-1.7504 4.4022-1.7504 1.7081 0 3.0978.6068 4.1693 1.8204 1.087 1.198 1.6306 2.645 1.6306 4.3409 0 .2957-.0235.599-.0699.9102zm4.0295-5.1578c-1.087 0-1.9875.3112-2.7018.9336-.7144.6068-1.157 1.4236-1.3277 2.4505h7.7795c-.1708-1.1047-.6055-1.9449-1.3043-2.5206-.6988-.5756-1.5139-.8635-2.4457-.8635z"/><path d="m107.099 15.7841c1.366 0 2.461.4356 3.284 1.3069.823.8558 1.234 2.0227 1.234 3.5008v7.1649h-2.026v-7.0482c0-.9491-.256-1.6804-.769-2.1938-.512-.529-1.219-.7935-2.12-.7935-1.009 0-1.824.3189-2.445.9568-.621.6224-.932 1.587-.932 2.894v6.1847h-2.026v-11.6692h2.026v1.6803c.823-1.3225 2.081-1.9837 3.774-1.9837z"/><path d="m119.549 18.0479h-3.098v6.3247c0 .5756.109.988.326 1.237.233.2334.582.3577 1.048.3733.466 0 1.041-.0156 1.724-.0467v1.8205c-1.77.2333-3.067.0934-3.89-.4202-.823-.5289-1.234-1.5169-1.234-2.9639v-10.9457l2.026-.6068v3.2674h3.098z"/><path clip-rule="evenodd" d="m36.1722 28.1537h-2.9603v-17.1309h6.3133c1.6042 0 2.9578.5426 4.0311 1.6335 1.0879 1.0744 1.6299 2.4221 1.6299 4.0146 0 1.5787-.5432 2.9251-1.6288 4.0135-1.0735 1.0917-2.4275 1.6347-4.0322 1.6347h-3.353zm-.397-6.2316h3.75c1.5061 0 2.7562-.5057 3.75-1.517 1.0094-1.0114 1.514-2.2561 1.514-3.7342 0-1.4936-.5046-2.7384-1.514-3.7341-.9938-1.0114-2.2439-1.517-3.75-1.517h-5.9163v16.3369h2.1663zm20.1875-6.2316h2.8205v12.4632h-2.8205v-1.274c-1.0283 1.0507-2.3722 1.5774-4.0051 1.5774-1.7391 0-3.2312-.6356-4.454-1.894l-.0018-.0019c-1.2225-1.2744-1.8342-2.8287-1.8342-4.6391 0-1.81.6117-3.3572 1.8351-4.6167 1.2221-1.2739 2.7145-1.9183 4.4549-1.9183 1.6329 0 2.9768.5266 4.0051 1.5773zm.397 2.4041c-.1252-.1912-.2576-.3705-.397-.538-.9836-1.1817-2.3185-1.7725-4.0051-1.7725-1.6306 0-3.0203.599-4.1693 1.797-1.149 1.1825-1.7238 2.6295-1.7238 4.341 0 1.7116.5748 3.1662 1.7238 4.3642 1.149 1.1826 2.5387 1.7738 4.1693 1.7738 1.6866 0 3.0215-.591 4.0051-1.7725.1394-.1676.2718-.3469.397-.5379v2.007h2.0265v-11.6692h-2.0265zm-1.4702 1.1426-.0013-.0014c-.7137-.7292-1.5959-1.0943-2.6743-1.0943-1.0613 0-1.9363.3639-2.6513 1.0943l-.0014.0014-.0013.0013c-.7132.7147-1.0719 1.5999-1.0719 2.6836 0 1.0831.3584 1.9773 1.0732 2.7081.7142.7148 1.5894 1.0726 2.6527 1.0726 1.0802 0 1.9626-.3587 2.6756-1.0726.715-.7311 1.0732-1.625 1.0732-2.7081 0-1.0837-.3586-1.9689-1.0718-2.6836zm.2824 5.6722c-.7919.7936-1.7779 1.1903-2.958 1.1903-1.1648 0-2.1431-.3967-2.9348-1.1903-.792-.8091-1.1881-1.8049-1.1881-2.9873 0-1.1825.3961-2.1705 1.1881-2.964.7917-.8091 1.77-1.2136 2.9348-1.2136 1.1801 0 2.1661.4045 2.958 1.2136.792.7935 1.1878 1.7815 1.1878 2.964 0 1.1824-.3958 2.1782-1.1878 2.9873zm14.6021-9.2189h3.0208l-4.9575 12.9292c0 .0005-.0002.0007-.0002.0012-.5161 1.3732-1.2528 2.4442-2.2243 3.1838-.9647.7617-2.0864 1.0999-3.3444 1.0157l-.3704-.0246v-2.6903l.427.0327c.6271.0476 1.1481-.1015 1.5877-.4342.4478-.3388.8403-.8907 1.1572-1.696l.0049-.0124.1381-.2921-5.2482-12.013h3.0336l3.6683 8.4757zm-3.0769 9.5456-3.9595-9.1486h-2.1664l5.0777 11.6225-.2095.4435c-.6043 1.5347-1.5201 2.3303-2.7474 2.3871-.129.0059-.2612.0037-.397-.0067v1.8904c1.1646.0778 2.1893-.2332 3.0744-.9334.9007-.6845 1.5995-1.6883 2.0964-3.0108l4.7515-12.3926h-2.1661zm13.1862-6.7912h-3.0979v5.9277c0 .5321.1016.8229.2197.9661.1376.1317.3709.2332.7643.2472.4567 0 1.0224-.0153 1.6987-.0462l.4152-.019v2.5841l-.3451.0455c-1.7941.2364-3.2079.1122-4.1519-.4768l-.0023-.0016-.0022-.0013c-.9846-.633-1.4168-1.7854-1.4168-3.298v-11.2413l2.8204-.8445v3.4037h3.0979zm-3.4948-2.3574v-3.2674l-2.0265.6068v10.9457c0 1.447.4114 2.435 1.2345 2.9639.8229.5136 2.1196.6535 3.8899.4202v-1.8205c-.1367.0063-.2691.012-.397.0169-.5118.0199-.9542.0298-1.3268.0298-.4658-.0156-.8152-.1398-1.0482-.3733-.2172-.249-.3259-.6614-.3259-1.237v-6.3247h3.0979v-1.9604zm5.42 12.0662v-12.4632h2.8205v12.4632zm16.3054-2.4027c-1.1299 1.5395-2.7627 2.3091-4.8986 2.3091-1.8478 0-3.3541-.5756-4.5187-1.7271-1.149-1.1669-1.7236-2.6371-1.7236-4.4109 0-1.7582.5669-3.2207 1.7003-4.3876 1.1335-1.167 2.601-1.7504 4.4024-1.7504 1.7079 0 3.0976.6068 4.1691 1.8204 1.087 1.198 1.6306 2.645 1.6306 4.3409 0 .2956-.0233.599-.07.9102h-9.7594c.0264.1363.0575.2687.0931.3971.2373.8531.6799 1.5298 1.3277 2.0301.7608.5756 1.6926.8636 2.7952.8636 1.5372 0 2.6553-.5679 3.3539-1.7039l1.7238.9803c-.0729.113-.1482.2224-.2258.3282zm-7.4057-.7836c.6812.515 1.5245.782 2.5538.782 1.4242 0 2.4016-.5163 3.0158-1.5148l.201-.3267 2.4218 1.3773-.2273.3528c-1.2142 1.8832-3.0551 2.8191-5.458 2.8191-1.9378 0-3.549-.6072-4.7978-1.8417l-.0018-.0018-.002-.002c-1.2286-1.2476-1.8376-2.8212-1.8376-4.6895 0-1.8523.6008-3.4169 1.8126-4.6643 1.2167-1.2525 2.7911-1.8707 4.687-1.8707 1.8137 0 3.3137.6497 4.4648 1.9524 1.1556 1.2745 1.7319 2.8174 1.7319 4.6059 0 .3165-.0251.6396-.0742.969l-.0508.3383h-9.5948c.2226.7274.6099 1.2931 1.1556 1.7147zm-.0756-6.0351-.0018.0016c-.5272.4478-.8933 1.0263-1.0922 1.751h6.8037c-.1965-.798-.5603-1.3943-1.0735-1.8172-.6255-.5153-1.3506-.7729-2.1931-.7729-1.0063 0-1.8097.2857-2.4413.8359zm6.1177 1.7526c-.2068-.9111-.6164-1.6189-1.2291-2.1236-.6988-.5757-1.5139-.8635-2.4455-.8635-1.087 0-1.9877.3112-2.7021.9335-.6196.5265-1.0348 1.211-1.2453 2.0536-.0323.1286-.0595.261-.0823.397h7.7797c-.0212-.1364-.0463-.2687-.0754-.397zm15.2637 7.4688h-2.82v-7.4452c0-.8777-.236-1.4953-.653-1.9134l-.002-.0021-.002-.0021c-.422-.4352-1.016-.6728-1.835-.6728-.918 0-1.625.2862-2.161.8369l-.002.0017-.001.0018c-.518.5184-.816 1.361-.816 2.6135v6.5817h-2.82v-12.4632h2.82v.9488c.862-.8363 1.997-1.2522 3.376-1.2522 1.459 0 2.663.4687 3.572 1.43.91.9467 1.344 2.2211 1.344 3.7747zm-1.631-11.0627c-.824-.8713-1.918-1.3069-3.285-1.3069-1.44 0-2.565.4788-3.376 1.4364-.142.1678-.274.3502-.397.5473v-1.6803h-2.026v11.6692h2.026v-6.1847c0-1.307.31-2.2716.932-2.894.621-.6379 1.436-.9569 2.445-.9569.901 0 1.608.2645 2.12.7936.512.5134.769 1.2447.769 2.1938v7.0482h2.026v-7.1649c0-1.4781-.411-2.645-1.234-3.5008zm9.563 1.3539h-3.098v5.9277c0 .5321.102.8229.22.9661.137.1317.371.2332.764.2472.457 0 1.022-.0153 1.699-.0462l.415-.019v2.5841l-.345.0455c-1.794.2364-3.208.1122-4.152-.4768l-.002-.0016-.003-.0013c-.984-.633-1.416-1.7854-1.416-3.298v-11.2413l2.82-.8445v3.4037h3.098zm-3.495-2.3574v-3.2674l-2.026.6068v10.9457c0 1.447.411 2.435 1.234 2.9639.823.5136 2.12.6535 3.89.4202v-1.8205c-.137.0063-.269.012-.397.0169-.512.0199-.954.0298-1.327.0298-.466-.0156-.815-.1398-1.048-.3733-.217-.249-.326-.6614-.326-1.237v-6.3247h3.098v-1.9604zm-74.6898 2.8939c.5901-.6223.8851-1.3925.8851-2.3105 0-.9335-.295-1.7037-.8851-2.3105-.59-.6068-1.3353-.9102-2.236-.9102h-3.75v6.4414h3.75c.9007 0 1.646-.3034 2.236-.9102zm-5.589.5132h3.353c.8001 0 1.4398-.2647 1.9496-.7882.5138-.5427.7746-1.2122.7746-2.0355 0-.8418-.2626-1.509-.7728-2.0337-.5102-.5246-1.1504-.79-1.9514-.79h-3.353zm47.0583-5.1339c-.489 0-.9176-.1711-1.2593-.5134-.3382-.3388-.5121-.7586-.5121-1.2373 0-.4768.1726-.8951.5082-1.2333.3391-.3577.7685-.5406 1.2632-.5406.4841 0 .9043.1866 1.2399.5406.3356.3382.508.7565.508 1.2333 0 .4787-.1737.8985-.5121 1.2373-.3381.3389-.7574.5134-1.2358.5134zm.955-2.7076c.2639.2645.3959.5835.3959.9569s-.132.6924-.3959.9569c-.2641.2645-.5824.3968-.955.3968-.3882 0-.7144-.1323-.9783-.3968s-.3961-.5835-.3961-.9569.1322-.6924.3961-.9569c.2639-.28.5901-.42.9783-.42.3726 0 .6909.14.955.42zm-1.98 4.4344h2.0265v11.6692h-2.0265z" fill-rule="evenodd"/></g></svg>