<svg viewBox="0 0 47 48" width="47" height="48" xmlns="http://www.w3.org/2000/svg">
  <path d="M 0 8 C 0 3.582 3.582 0 8 0 L 39 0 C 43.418 0 47 3.582 47 8 L 47 40 C 47 44.418 43.418 48 39 48 L 8 48 C 3.582 48 0 44.418 0 40 Z" fill="rgb(25, 18, 24)"/>
  <path d="M 23.132 24.53 C 23.366 23.507 23.674 20.357 23.451 19.399 L 23.413 19.239 L 23.56 19.164 C 25.745 18.059 26.662 15.446 25.649 13.217 L 25.159 12.139 C 25.105 12.019 24.961 11.966 24.842 12.023 L 23.766 12.528 C 22.663 13.028 21.82 13.929 21.395 15.064 C 20.969 16.199 21.011 17.432 21.513 18.534 L 22.003 19.615 L 22.003 19.659 C 22.006 19.832 22.052 23.907 21.376 25.7 L 21.276 25.964 L 21.052 25.793 C 20.445 25.331 19.76 24.841 18.898 24.253 L 18.822 24.201 L 18.735 23.621 C 18.557 22.422 17.923 21.363 16.949 20.642 C 15.976 19.921 14.78 19.623 13.582 19.802 L 12.448 19.971 C 12.289 19.995 12.179 20.144 12.205 20.302 L 12.378 21.402 C 12.745 23.887 15.068 25.607 17.557 25.241 L 17.977 25.177 L 18.061 25.177 L 18.119 25.215 C 18.619 25.575 19.915 26.543 21.152 27.779 L 21.171 27.802 C 21.18 27.814 21.421 28.121 21.733 28.025 C 22.04 27.887 22.832 25.823 23.133 24.529 Z" fill="rgb(245, 238, 228)"/>
  <path d="M 30.84 27.605 C 29.505 27.605 28.194 28.258 27.413 29.458 L 26.994 30.102 C 26.92 30.215 26.895 30.349 26.923 30.481 C 26.951 30.612 27.029 30.724 27.14 30.798 L 27.684 31.152 C 28.504 31.686 29.481 31.957 30.454 31.847 C 31.696 31.706 32.773 31.038 33.444 30.007 L 33.966 29.206 C 34.055 29.069 34.016 28.887 33.88 28.798 L 33.062 28.266 C 32.375 27.819 31.603 27.605 30.84 27.605 Z" fill="rgb(245, 238, 228)"/>
  <path d="M 24.344 31.459 C 24.484 30.677 24.747 29.921 25.204 29.212 C 26.215 27.647 27.651 26.351 29.107 25.205 C 29.453 24.933 29.804 24.668 30.165 24.415 L 30.203 24.388 L 31.101 24.221 C 32.301 23.994 33.341 23.311 34.027 22.301 C 34.724 21.275 34.941 19.998 34.712 18.78 L 34.526 17.791 C 34.498 17.64 34.353 17.542 34.204 17.57 L 33.073 17.78 C 31.883 18.003 30.851 18.676 30.166 19.677 C 29.482 20.678 29.229 21.886 29.453 23.077 L 29.511 23.372 L 29.396 23.449 C 26.854 25.169 23.849 27.082 22.844 30.16 C 22.582 30.963 22.53 31.759 22.499 32.591 C 22.457 33.697 22.491 34.803 22.647 35.901 C 22.655 35.959 22.706 36 22.764 36 L 24.28 36 C 24.346 36 24.394 35.941 24.385 35.876 C 24.358 35.703 24.339 35.543 24.326 35.389 C 24.215 34.076 24.118 32.733 24.347 31.458 Z" fill="rgb(245, 238, 228)"/>
</svg>
