<svg fill="none" height="40" viewBox="0 0 166 40" width="166" xmlns="http://www.w3.org/2000/svg"><path d="m104 39.9999-15 .0001 14-20-14-20h15l14 20z" fill="#10b981"/><g fill="#fff"><path d="m119.181 15.9726c.398.5687 1.24.5687 1.638 0l10.08-14.39914c.464-.662779-.011-1.57346-.82-1.57346h-10.996c-1.306 0-2.529.636844-3.277 1.70615l-2.905 4.14901c-.241.34432-.241.80261 0 1.14693z"/><path d="m119.181 24.0274c.398-.5688 1.24-.5688 1.638 0l10.08 14.3991c.464.6628-.011 1.5735-.82 1.5735h-10.996c-1.306 0-2.529-.6369-3.277-1.7062l-2.905-4.149c-.241-.3443-.241-.8026 0-1.1469z"/><path d="m39.152 37.0569c.4761 1.738 2.0557 2.9431 3.8578 2.9431h4.3279c1.7975 0 3.3743-1.199 3.8546-2.9312l4.7512-17.1345c.2709-.9771 1.6563-.9771 1.9273 0l4.7511 17.1345c.4803 1.7322 2.0571 2.9312 3.8546 2.9312h4.3416c1.7957 0 3.3713-1.1967 3.8532-2.9265l10.3287-37.0735h-6.498c-1.8348 0-3.4343 1.24827-3.8801 3.02806l-6.2628 25.00194-7.4364-27.29288c-.1185-.435178-.5138-.73712-.9648-.73712h-5.9207c-.4487 0-.8425.298944-.9631.731181l-7.6189 27.298819-6.0912-24.97768c-.4369-1.7916-2.042-3.05232-3.8861-3.05232h-6.4779z"/><path d="m4 0c-2.20914 0-4 1.79086-4 4v35.9778h9.1944v-26.7778c0-2.2091 1.7909-4 4-4h12.5649c.6378 0 1.1126-.58913.9771-1.21243l-1.5652-7.2c-.0999-.459688-.5067-.78757-.9772-.78757z"/></g><path d="m136 32h30v8h-30z" fill="#10b981"/></svg>